<svg width="50" height="49" viewBox="0 0 50 49" fill="none" xmlns="http://www.w3.org/2000/svg">
<path d="M45.232 10.8415C45.2171 10.0271 44.9338 8.29873 44.6198 7.56726C44.3057 6.83579 43.8796 6.20614 43.3412 5.67827C42.7879 5.15041 42.1562 4.73944 41.4459 4.44534C40.7355 4.15125 39.9841 4.0042 39.1916 4.0042C34.1926 4.0042 30.4433 4.0042 27.9438 4.0042C25.4431 4.0042 21.6921 4.0042 16.6908 4.0042V0H39.3037C40.6346 0 41.8945 0.248846 43.0833 0.746546C44.2721 1.24425 45.3151 1.94554 46.2123 2.85045C47.1096 3.74027 47.8086 4.78467 48.3096 5.98368C48.8106 7.18268 49.2306 9.66137 49.2306 11.0037V12.9787H45.232C45.232 12.5342 45.2358 10.9224 45.232 10.8415Z" fill="#3949AB"/>
<path d="M38.3109 45.0201C39.1292 45.0052 40.8657 44.7232 41.6006 44.4107C42.3355 44.0981 42.9681 43.6739 43.4985 43.1381C44.0288 42.5874 44.4417 41.9586 44.7372 41.2516C45.0327 40.5446 45.1804 39.7967 45.1804 39.0079V16.6126H49.2035V39.1195C49.2035 40.4442 48.9535 41.6981 48.4534 42.8814C47.9534 44.0646 47.2488 45.1027 46.3396 45.9958C45.4456 46.8888 44.3963 47.5846 43.1916 48.0832C41.987 48.5818 39.4966 48.9999 38.148 48.9999H36.1637V45.0201C36.6103 45.0201 38.2296 45.0238 38.3109 45.0201Z" fill="#3949AB"/>
<path d="M3.99859 38.1313C4.01355 38.9457 4.29684 40.6741 4.61087 41.4055C4.92489 42.137 5.35107 42.7666 5.88941 43.2945C6.4427 43.8224 7.07448 44.2333 7.78479 44.5274C8.49509 44.8215 9.2465 44.9686 10.0391 44.9686H32.5398V48.9728H9.9269C8.59602 48.9728 7.33618 48.7239 6.14736 48.2262C4.95853 47.7285 3.91552 47.0272 3.0183 46.1223C2.12107 45.2325 1.42199 44.1881 0.921042 42.9891C0.420091 41.7901 0 39.3114 0 37.9691V35.9941H3.99859C3.99859 36.4386 3.99486 38.0504 3.99859 38.1313Z" fill="#3949AB"/>
<path d="M13.0398 4.02538H10.8926C10.0743 4.04027 8.33781 4.32223 7.6029 4.63478C6.86799 4.94734 6.23536 5.37152 5.70502 5.90733C5.17467 6.45803 4.76176 7.08685 4.46628 7.79383C4.1708 8.5008 4.02306 9.24869 4.02306 10.0375C4.02306 13.0227 4.02306 15.2616 4.02306 16.7542C4.02306 20.2383 4.02306 25.4645 4.02306 32.4328C3.59794 32.4328 0.149844 32.4328 0 32.4328L0 9.9259C0 8.60125 0.250018 7.34732 0.750062 6.16407C1.25011 4.98082 1.9547 3.9427 2.86387 3.04968C3.75789 2.15666 4.80721 1.46086 6.01186 0.962257C7.21651 0.463654 9.70688 0.0455322 11.0555 0.0455322C11.1973 0.0455322 13.0398 0.0455322 13.0398 0.0455322C13.0398 1.14483 13.0398 3.17867 13.0398 4.02538Z" fill="#3949AB"/>
</svg>
