<svg width="18" height="22" viewBox="0 0 18 22" fill="none" xmlns="http://www.w3.org/2000/svg">
<path d="M0 6.43005C0 5.54281 0.170272 4.71039 0.510817 3.9328C0.851362 3.15521 1.3121 2.47732 1.89303 1.89911C2.48397 1.31093 3.17007 0.847371 3.95132 0.508423C4.73257 0.169474 5.56891 0 6.46034 0H16.3462V4.29169H6.46034C6.15986 4.29169 5.87941 4.34652 5.61899 4.45618C5.35857 4.56584 5.1282 4.72036 4.92788 4.91974C4.73758 5.10915 4.58734 5.33346 4.47716 5.59265C4.36699 5.85185 4.3119 6.13098 4.3119 6.43005C4.3119 6.72913 4.36699 7.01324 4.47716 7.28241C4.58734 7.54161 4.73758 7.77089 4.92788 7.97028C5.1282 8.15969 5.35857 8.30922 5.61899 8.41888C5.87941 8.52854 6.15986 8.58337 6.46034 8.58337H10.7722C11.6637 8.58337 12.5 8.75285 13.2812 9.0918C14.0725 9.42078 14.7586 9.87935 15.3395 10.4675C15.9305 11.0457 16.3912 11.7286 16.7218 12.5162C17.0623 13.2938 17.2326 14.1262 17.2326 15.0134C17.2326 15.9007 17.0623 16.7331 16.7218 17.5107C16.3912 18.2883 15.9305 18.9712 15.3395 19.5593C14.7586 20.1375 14.0725 20.5961 13.2812 20.9351C12.5 21.274 11.6637 21.4435 10.7722 21.4435H1.20192V17.1518H10.7722C11.0727 17.1518 11.3532 17.097 11.6136 16.9873C11.874 16.8776 12.0994 16.7281 12.2897 16.5387C12.49 16.3393 12.6452 16.11 12.7554 15.8508C12.8656 15.5916 12.9207 15.3125 12.9207 15.0134C12.9207 14.7144 12.8656 14.4352 12.7554 14.176C12.6452 13.9168 12.49 13.6925 12.2897 13.5031C12.0994 13.3037 11.874 13.1492 11.6136 13.0396C11.3532 12.9299 11.0727 12.8751 10.7722 12.8751H6.46034C5.56891 12.8751 4.73257 12.7056 3.95132 12.3666C3.17007 12.0277 2.48397 11.5691 1.89303 10.9909C1.3121 10.4027 0.851362 9.71985 0.510817 8.94226C0.170272 8.1547 0 7.3173 0 6.43005Z" fill="#3949AB"/>
</svg>
